# xmcd CD database file
#
# Track frame offsets:
#	150
#	32720
#	81148
#	114617
#	157032
#	199318
#	244080
#
# Disc length: 3699 seconds
#
# Revision: 0
# Processed by: cddbd v1.5PL3 Copyright (c) Steve Scherf et al.
# Submitted via: CDex 1.51
#
DISCID=590e7107
DTITLE=Dan Gibson - Beethoven Forever By The Sea
DYEAR=2000
DGENRE=New Age
TTITLE0=Sonata Pathetique - 2nd Movement
TTITLE1=Symphony No. 6 Pastoral - 1st, 2nd and 5th Movement Excerpts
TTITLE2=Spring Sonata For Violin And Piano
TTITLE3=Symphony No. 7 - 2nd Movement
TTITLE4=Piano Concerto No. 1 - Largo
TTITLE5=Symphony No. 9 - 3rd And 4th Movement Excerpts
TTITLE6=Moonlight Sonata - 1st Movement
EXTD=YEAR: 2000
EXTT0=
EXTT1=
EXTT2=
EXTT3=
EXTT4=
EXTT5=
EXTT6=
PLAYORDER=
